HIERARCHY
ROOT Hips
{
	OFFSET -0.001795 -0.223333 0.028219
	CHANNELS 6 Xposition Yposition Zposition Zrotation Yrotation Xrotation 
	JOINT LeftUpLeg
	{
		OFFSET 0.069520 -0.091406 -0.006815
		CHANNELS 3 Zrotation Yrotation Xrotation
		JOINT LeftLeg
		{
			OFFSET 0.034277 -0.375199 -0.004496
			CHANNELS 3 Zrotation Yrotation Xrotation
			JOINT LeftFoot
			{
				OFFSET -0.013596 -0.397961 -0.043693
				CHANNELS 3 Zrotation Yrotation Xrotation
				JOINT LeftToe
				{
					OFFSET 0.026358 -0.055791 0.119288
					CHANNELS 3 Zrotation Yrotation Xrotation
					End Site
					{
						OFFSET 0.000000 0.000000 0.000000
					}
				}
			}
		}
	}
	JOINT RightUpLeg
	{
		OFFSET -0.067670 -0.090522 -0.004320
		CHANNELS 3 Zrotation Yrotation Xrotation
		JOINT RightLeg
		{
			OFFSET -0.038290 -0.382569 -0.008850
			CHANNELS 3 Zrotation Yrotation Xrotation
			JOINT RightFoot
			{
				OFFSET 0.015774 -0.398415 -0.042312
				CHANNELS 3 Zrotation Yrotation Xrotation
				JOINT RightToe
				{
					OFFSET -0.025372 -0.048144 0.123348
					CHANNELS 3 Zrotation Yrotation Xrotation
					End Site
					{
						OFFSET 0.000000 0.000000 0.000000
					}
				}
			}
		}
	}
	JOINT Spine
	{
		OFFSET -0.002533 0.108963 -0.026696
		CHANNELS 3 Zrotation Yrotation Xrotation
		JOINT Spine1
		{
			OFFSET 0.005487 0.135180 0.001092
			CHANNELS 3 Zrotation Yrotation Xrotation
			JOINT Spine2
			{
				OFFSET 0.001457 0.052922 0.025425
				CHANNELS 3 Zrotation Yrotation Xrotation
				JOINT Neck
				{
					OFFSET -0.002778 0.213870 -0.042857
					CHANNELS 3 Zrotation Yrotation Xrotation
					JOINT Head
					{
						OFFSET 0.005152 0.064970 0.051349
						CHANNELS 3 Zrotation Yrotation Xrotation
						End Site
						{
							OFFSET 0.000000 0.000000 0.000000
						}
					}
				}
				JOINT LeftShoulder
				{
					OFFSET 0.078845 0.121749 -0.034090
					CHANNELS 3 Zrotation Yrotation Xrotation
					JOINT LeftArm
					{
						OFFSET 0.090977 0.030469 -0.008868
						CHANNELS 3 Zrotation Yrotation Xrotation
						JOINT LeftForeArm
						{
							OFFSET 0.259612 -0.012772 -0.027456
							CHANNELS 3 Zrotation Yrotation Xrotation
							JOINT LeftHand
							{
								OFFSET 0.249234 0.008986 -0.001171
								CHANNELS 3 Zrotation Yrotation Xrotation
								End Site
								{
									OFFSET 0.000000 0.000000 0.000000
								}
							}
						}
					}
				}
				JOINT RightShoulder
				{
					OFFSET -0.081759 0.118833 -0.038615
					CHANNELS 3 Zrotation Yrotation Xrotation
					JOINT RightArm
					{
						OFFSET -0.096012 0.032551 -0.009143
						CHANNELS 3 Zrotation Yrotation Xrotation
						JOINT RightForeArm
						{
							OFFSET -0.253742 -0.013329 -0.021401
							CHANNELS 3 Zrotation Yrotation Xrotation
							JOINT RightHand
							{
								OFFSET -0.255298 0.007772 -0.005559
								CHANNELS 3 Zrotation Yrotation Xrotation
								End Site
								{
									OFFSET 0.000000 0.000000 0.000000
								}
							}
						}
					}
				}
			}
		}
	}
}
MOTION
Frames: 14
Frame Time: 0.050000
0.000000 0.946188 0.000000 0.640265 23.473631 -3.157784 7.013742 -0.446707 3.115710 -1.727053 -0.070869 4.859747 -0.331955 6.743331 12.238683 0.000000 0.000000 0.000000 -5.182639 -0.036864 -4.309951 -1.465796 0.342077 7.610088 -20.487905 -31.911446 32.251042 0.000000 0.000000 0.000000 4.999901 -0.905523 8.996314 -7.747766 2.808060 -23.652328 0.576397 2.311777 29.431296 13.352441 -3.853813 -25.290167 0.000000 0.000000 0.000000 -10.749246 -3.061780 -1.876048 -51.398476 7.030421 -11.510331 -28.503826 -33.806740 8.396635 0.000000 0.000000 0.000000 16.243266 -5.803032 -0.313498 63.032024 2.958243 -6.527358 18.608509 37.092042 10.356819 0.000000 0.000000 0.000000 
0.003764 0.944858 -0.005555 1.327313 19.814733 -2.074962 6.601806 -0.334642 4.819961 -3.624871 0.218949 1.110239 1.349772 9.037673 12.750569 0.000000 0.000000 0.000000 -7.019936 -0.035473 -8.767846 -0.359051 0.101996 12.233923 -17.475430 -29.071109 29.465119 0.000000 0.000000 0.000000 5.206493 -1.062829 10.230368 -8.019504 2.736961 -24.745809 -0.847019 1.296819 29.796510 14.413454 -5.499255 -23.978799 0.000000 0.000000 0.000000 -9.968584 -4.041036 -0.661679 -54.126032 6.322881 -12.130421 -30.628928 -39.065122 11.278854 0.000000 0.000000 0.000000 16.773436 -3.977355 0.104392 61.062557 0.630114 -8.050244 23.453692 39.212056 12.566162 0.000000 0.000000 0.000000 
0.005828 0.943007 -0.010361 1.257008 14.037607 -1.940227 5.987767 -0.129923 6.004592 -4.128269 0.317056 0.060533 4.294304 12.943639 13.340381 0.000000 0.000000 0.000000 -7.361357 0.116913 -10.722267 0.252422 0.106868 12.623881 -14.253222 -26.245610 25.963621 0.000000 0.000000 0.000000 5.898629 -1.168616 10.924146 -8.257844 2.766072 -24.531775 -0.639764 1.139854 30.424298 11.539073 -3.719000 -26.758369 0.000000 0.000000 0.000000 -10.262672 -5.281343 0.510644 -52.725284 4.101083 -10.915452 -41.307434 -44.743468 18.719438 0.000000 0.000000 0.000000 17.424769 -3.832377 -0.564392 59.982784 -1.485132 -9.388377 23.757700 42.076515 13.329211 0.000000 0.000000 0.000000 
0.005418 0.940047 -0.012334 1.739838 9.987163 -1.574578 4.833569 0.094542 7.013951 -4.020055 0.350427 -1.305134 6.396017 15.721982 13.829479 0.000000 0.000000 0.000000 -8.203731 0.177111 -14.538619 1.618771 -0.145414 16.588961 -13.296628 -25.691798 24.502831 0.000000 0.000000 0.000000 6.155931 -1.359146 12.638860 -8.449334 2.696568 -25.391790 -1.587744 -0.912287 31.325607 12.649169 -5.149769 -27.362378 0.000000 0.000000 0.000000 -9.975728 -5.717705 1.482929 -52.349371 1.516781 -9.855896 -54.470210 -50.006168 29.882591 0.000000 0.000000 0.000000 17.011386 -3.706829 -1.495433 59.243059 -4.065121 -10.748799 32.215528 42.919340 16.668033 0.000000 0.000000 0.000000 
0.001295 0.937925 -0.009627 1.323505 4.562386 -2.050355 4.381811 0.330164 8.856238 -3.342098 0.346506 -2.064233 9.214030 19.489244 15.235512 0.000000 0.000000 0.000000 -7.856125 0.482345 -17.206769 3.293035 -0.384494 19.409385 -11.927480 -24.590080 23.883904 0.000000 0.000000 0.000000 6.373001 -1.552562 14.981239 -6.496189 2.189367 -26.028319 -3.107887 -0.737237 31.255901 13.082553 -5.827823 -27.831072 0.000000 0.000000 0.000000 -8.702630 -7.129264 2.568073 -50.143434 -2.550438 -7.780273 -76.996393 -54.709157 49.876473 0.000000 0.000000 0.000000 16.481139 -5.568795 -3.199429 57.837647 -7.131438 -11.976861 42.874538 43.292895 21.063959 0.000000 0.000000 0.000000 
-0.007194 0.936731 -0.000760 0.941397 -0.837388 -2.155530 3.827716 0.630989 10.857471 -2.174579 0.290289 -3.063543 11.989654 23.024963 17.899884 0.000000 0.000000 0.000000 -7.227482 0.885930 -19.389494 4.693243 -0.474513 21.427475 -10.213357 -22.966130 24.196797 0.000000 0.000000 0.000000 6.646029 -1.592786 16.235007 -4.755582 1.706333 -27.442484 -4.151161 -1.604815 32.223982 12.606047 -6.149541 -28.478467 0.000000 0.000000 0.000000 -7.704704 -7.604792 3.243333 -50.636388 -4.466685 -7.061905 -95.561133 -55.156338 68.738488 0.000000 0.000000 0.000000 15.680106 -6.368259 -4.395645 56.923649 -9.588737 -13.086406 48.663520 42.363662 22.162715 0.000000 0.000000 0.000000 
-0.021078 0.935898 0.014927 0.761440 -6.323992 -2.121351 3.736175 0.930634 12.569422 -1.953782 0.288323 -2.889809 14.792153 26.139086 21.674482 0.000000 0.000000 0.000000 -6.273456 1.334802 -20.444767 6.242728 -0.530734 22.919165 -8.875445 -21.937826 22.557670 0.000000 0.000000 0.000000 6.799854 -1.485141 16.386063 -3.375147 1.332187 -26.943971 -5.335429 -2.456273 32.230245 11.745814 -6.457449 -27.633609 0.000000 0.000000 0.000000 -5.693893 -7.058555 3.208736 -51.966200 -5.499688 -6.406127 -108.210242 -55.730773 85.218185 0.000000 0.000000 0.000000 14.356495 -7.066322 -5.363638 57.011661 -13.401047 -14.981138 54.423837 41.662810 23.125128 0.000000 0.000000 0.000000 
-0.041720 0.937886 0.036387 1.226202 -12.874809 -2.420523 2.811097 1.549848 15.326508 -1.583403 0.256910 -2.314385 16.453278 27.383137 25.716418 0.000000 0.000000 0.000000 -4.912173 1.752203 -20.197446 6.415850 -0.065385 23.378034 -6.752788 -19.812885 21.224744 0.000000 0.000000 0.000000 6.010198 -1.189648 16.244968 -1.293324 0.766870 -26.985876 -5.902667 -2.206392 33.096378 10.824677 -6.487465 -28.141576 0.000000 0.000000 0.000000 -3.578540 -4.924410 2.306746 -54.384286 -4.194375 -6.659196 -114.267498 -54.331806 93.599940 0.000000 0.000000 0.000000 14.334511 -7.985617 -6.581469 55.387119 -14.513296 -15.188128 59.580425 42.230567 24.578905 0.000000 0.000000 0.000000 
-0.068204 0.940736 0.061139 1.411833 -18.594569 -1.687800 2.904740 1.675537 14.716766 -2.358863 0.359570 2.208097 17.659043 27.510241 30.769055 0.000000 0.000000 0.000000 -3.571658 1.929345 -18.920297 6.316767 0.224555 21.082021 -3.825098 -16.410968 20.672169 0.000000 0.000000 0.000000 6.541690 -1.043416 14.392088 -0.694277 0.512530 -26.213703 -6.234316 -1.531477 32.610952 10.338051 -6.948081 -26.340079 0.000000 0.000000 0.000000 -2.334543 -3.537442 1.677493 -55.727420 0.424886 -8.170463 -115.041008 -53.511400 95.055424 0.000000 0.000000 0.000000 13.573938 -7.919461 -6.923596 56.092530 -17.434068 -16.883066 63.474656 43.012847 25.931213 0.000000 0.000000 0.000000 
-0.097254 0.942881 0.085532 0.832690 -24.555672 -1.484480 5.325100 1.564904 13.621905 -5.305451 1.447230 9.685309 15.906189 24.303929 34.645612 0.000000 0.000000 0.000000 -1.314186 1.927608 -16.709203 6.519414 0.432487 19.675539 -1.621548 -13.741773 19.490154 0.000000 0.000000 0.000000 8.076943 -1.074159 14.314601 0.468642 0.196955 -26.653445 -6.580817 -0.133124 32.756693 8.446573 -6.365673 -25.305967 0.000000 0.000000 0.000000 -2.741629 -1.878363 1.172210 -56.358233 4.679793 -9.846084 -110.824963 -54.241154 91.784861 0.000000 0.000000 0.000000 12.839506 -7.097583 -6.735867 55.826320 -19.081299 -17.774782 66.267365 43.763804 27.029566 0.000000 0.000000 0.000000 
-0.126219 0.941080 0.108090 1.591818 -31.038152 -2.455493 6.548484 1.452005 10.925684 -7.175077 4.110696 20.965002 11.141854 18.107139 36.035059 0.000000 0.000000 0.000000 -0.349292 1.738121 -14.790080 6.445456 0.854155 20.083504 0.331630 -11.184504 18.112654 0.000000 0.000000 0.000000 8.783757 -1.005529 16.428171 -0.022210 0.230418 -26.908609 -5.997195 0.895054 32.820987 8.053203 -6.613098 -25.441414 0.000000 0.000000 0.000000 -3.886877 -0.326074 0.876878 -56.337461 9.508768 -11.723369 -104.848010 -54.312264 86.056888 0.000000 0.000000 0.000000 11.718308 -6.932123 -6.813224 56.587657 -17.271175 -17.415423 68.069105 44.086740 27.007755 0.000000 0.000000 0.000000 
-0.153884 0.933482 0.128567 2.571121 -36.430610 -3.632772 6.648872 1.197856 6.872109 -6.065344 7.331635 31.989862 6.547486 12.487007 35.261363 0.000000 0.000000 0.000000 0.714447 1.542763 -13.233498 5.184528 1.688982 22.161885 1.757918 -7.237802 13.605121 0.000000 0.000000 0.000000 9.028467 -0.787887 19.736387 -0.220305 0.407455 -28.666031 -5.061557 0.844413 33.413159 7.263089 -6.738176 -24.475812 0.000000 0.000000 0.000000 -5.527558 0.907641 0.875156 -57.059489 12.438023 -12.917373 -94.336470 -55.162728 76.609612 0.000000 0.000000 0.000000 12.439442 -5.718759 -7.226386 55.235458 -15.969389 -16.143890 67.925642 46.344219 27.316018 0.000000 0.000000 0.000000 
-0.182012 0.924443 0.148848 3.969684 -42.640642 -5.400320 4.778515 0.908256 3.658166 -3.273426 9.487975 38.154865 5.716581 10.488429 24.020416 0.000000 0.000000 0.000000 1.812669 1.450701 -12.489366 3.322632 3.290749 26.219686 3.006949 -2.812965 9.850309 0.000000 0.000000 0.000000 7.952379 -0.173142 22.514136 0.767526 -0.011803 -27.409175 -5.116564 2.631402 32.326114 7.078219 -6.801223 -24.821694 0.000000 0.000000 0.000000 -6.907404 2.472678 0.603208 -58.173417 13.987703 -13.737271 -83.730904 -53.222736 64.604040 0.000000 0.000000 0.000000 14.412019 -4.151727 -7.739224 53.929447 -13.966694 -14.282475 68.390096 49.360914 29.198419 0.000000 0.000000 0.000000 
-0.211089 0.916719 0.170521 5.256279 -46.962521 -7.010205 2.031438 0.272527 -1.081642 2.646466 9.327114 43.574806 1.540133 3.618388 3.000499 0.000000 0.000000 0.000000 2.713772 1.075527 -10.305573 1.142183 4.581193 27.845118 3.319011 1.084656 6.138174 0.000000 0.000000 0.000000 7.304227 0.358438 24.037806 1.603723 -0.301027 -26.600285 -4.878696 3.459852 32.359128 6.308202 -6.625681 -24.382269 0.000000 0.000000 0.000000 -7.616011 3.375587 0.468909 -59.860855 14.785686 -14.184964 -73.863259 -52.687111 55.549886 0.000000 0.000000 0.000000 13.587076 -2.987976 -7.252469 54.582850 -11.538168 -13.442448 66.515198 51.036204 28.743335 0.000000 0.000000 0.000000 
